# Blender v2.79 (sub 0) OBJ File: 'bucket_LR_001.blend'
# www.blender.org
mtllib bucket_LR_001.mtl
o Cylinder
v -0.000000 -0.663768 -0.851573
v 0.000000 1.000000 -1.150243
v 0.665787 -0.663768 -0.530947
v 0.899296 1.000000 -0.717165
v 0.830222 -0.663768 0.189493
v 1.121404 1.000000 0.255953
v 0.369484 -0.663768 0.767241
v 0.499071 1.000000 1.036333
v -0.369484 -0.663768 0.767241
v -0.499072 1.000000 1.036333
v -0.830222 -0.663768 0.189493
v -1.121403 1.000000 0.255953
v -0.665787 -0.663768 -0.530947
v -0.899296 1.000000 -0.717164
v 0.000000 1.171266 -1.150243
v 0.899296 1.171266 -0.717165
v 1.121404 1.171266 0.255953
v 0.499071 1.171266 1.036333
v -0.499072 1.171266 1.036333
v -1.121403 1.171266 0.255953
v -0.899296 1.171266 -0.717164
v 0.000000 1.168617 -1.035218
v 0.809366 1.168617 -0.645448
v 1.009263 1.168617 0.230358
v 0.449164 1.168617 0.932700
v -0.449164 1.168617 0.932700
v -1.009263 1.168617 0.230358
v -0.809366 1.168617 -0.645448
v 0.000000 -0.382882 -0.799285
v 0.624907 -0.382882 -0.498346
v 0.779246 -0.382882 0.177858
v 0.346797 -0.382882 0.720131
v -0.346797 -0.382882 0.720131
v -0.779246 -0.382882 0.177858
v -0.624907 -0.382882 -0.498346
v 1.037195 1.051449 -0.112988
v 0.977793 1.047050 -0.373243
v 1.037195 1.135828 -0.112988
v 0.977793 1.132455 -0.373243
v 1.115316 1.126082 -0.130819
v 1.055915 1.121683 -0.391074
v 1.140703 1.208560 -0.136613
v 1.081302 1.205187 -0.396868
v 1.174890 1.176786 -0.147162
v 1.115488 1.172387 -0.407417
v 1.186921 1.254089 -0.147162
v 1.127519 1.250716 -0.407417
v 1.083548 1.287343 -0.120931
v 1.024146 1.283970 -0.381186
v 1.129765 1.332872 -0.131480
v 1.070364 1.329499 -0.391735
v -0.917408 1.171266 0.511756
v -0.499072 1.085633 1.036333
v -1.121403 1.085633 0.255953
v -0.917408 1.085633 0.511756
v -1.141225 1.232993 0.305347
v -0.960739 1.232993 0.561150
v -1.183341 1.196537 0.305347
v -1.020502 1.196537 0.561150
v -1.178065 1.301027 0.326982
v -0.960220 1.306995 0.552332
v -1.237153 1.306112 0.367984
v -1.027940 1.301396 0.579389
v 1.011603 1.363951 -0.105503
v 0.952201 1.360578 -0.365758
v 1.057820 1.409480 -0.116052
v 0.998419 1.406107 -0.383022
v 0.913857 1.468031 -0.084542
v 0.854455 1.464658 -0.344797
v 0.960074 1.513560 -0.095091
v 0.900673 1.510187 -0.362061
v 0.772005 1.534418 -0.084542
v 0.712603 1.531046 -0.344797
v 0.818223 1.579948 -0.095091
v 0.758821 1.576575 -0.355346
v 0.658415 1.598783 -0.060184
v 0.599013 1.595410 -0.320439
v 0.704633 1.644312 -0.070732
v 0.645231 1.640939 -0.330987
v 0.479609 1.673597 -0.021840
v 0.420208 1.670224 -0.282095
v 0.525827 1.719126 -0.032389
v 0.466425 1.715753 -0.292644
v 0.294010 1.742112 0.017961
v 0.234608 1.738739 -0.242294
v 0.340227 1.787641 0.007412
v 0.280826 1.784268 -0.252843
v 0.052490 1.763993 0.069753
v -0.006912 1.760620 -0.190502
v 0.098707 1.809522 0.059204
v 0.039306 1.806150 -0.201051
v -0.155872 1.764433 0.114435
v -0.215274 1.761060 -0.145820
v -0.179661 1.809962 0.103886
v -0.239063 1.806589 -0.156369
v -0.381302 1.733900 0.162777
v -0.440704 1.730527 -0.097478
v -0.431876 1.779429 0.152229
v -0.491277 1.776057 -0.108026
v -0.544200 1.698909 0.197710
v -0.603601 1.695536 -0.062545
v -0.629030 1.744438 0.187161
v -0.688432 1.741065 -0.073094
v -0.751794 1.647382 0.267965
v -0.821499 1.633280 0.010643
v -0.836987 1.692554 0.258913
v -0.906692 1.678452 0.001590
v -0.818881 1.525836 0.365038
v -0.888586 1.511733 0.107715
v -0.904074 1.571007 0.355985
v -0.973779 1.556906 0.098663
v -0.877172 1.420225 0.483648
v -0.946877 1.406122 0.226326
v -0.962365 1.465396 0.474596
v -1.032070 1.451295 0.217273
v -0.960814 1.331852 0.523097
v -1.065752 1.360054 0.357602
v -1.011142 1.377024 0.562883
v -1.150945 1.405226 0.348549
v 0.899296 0.875851 -0.717165
v 0.000000 0.875851 -1.150243
v 1.121404 0.875851 0.255953
v 0.499071 0.875851 1.036333
v -0.499072 0.875851 1.036333
v -0.899296 0.875851 -0.717164
v -1.121403 0.875851 0.255953
vt 0.435290 0.520995
vt 0.441014 0.316041
vt 0.538491 0.320543
vt 0.507456 0.524327
vt 0.883872 0.548000
vt 0.898723 0.749717
vt 0.770899 0.749717
vt 0.789239 0.548000
vt 0.196845 0.334603
vt 0.236237 0.533127
vt 0.136256 0.526818
vt 0.122825 0.329933
vt 0.011537 0.533127
vt 0.030491 0.334603
vt 0.517525 0.016526
vt 0.545203 0.215029
vt 0.427373 0.208695
vt 0.430291 0.011836
vt 0.011933 0.549354
vt 0.136651 0.543045
vt 0.137196 0.565431
vt 0.012478 0.571739
vt 0.012205 0.560547
vt 0.314909 0.215029
vt 0.347029 0.016526
vt 0.342339 0.524327
vt 0.315463 0.320543
vt 0.522208 0.705513
vt 0.448151 0.765916
vt 0.355803 0.744257
vt 0.314704 0.656844
vt 0.355803 0.569501
vt 0.448151 0.548000
vt 0.522208 0.608531
vt 0.291629 0.224323
vt 0.191666 0.306260
vt 0.188400 0.291568
vt 0.278368 0.217824
vt 0.440695 0.299765
vt 0.315144 0.304267
vt 0.314704 0.281813
vt 0.440255 0.277312
vt 0.898688 0.788561
vt 0.770864 0.788561
vt 0.819331 0.783901
vt 0.853517 0.783458
vt 0.465852 0.238189
vt 0.545058 0.242447
vt 0.544999 0.253639
vt 0.465792 0.249381
vt 0.538171 0.304267
vt 0.537731 0.281813
vt 0.236632 0.549354
vt 0.237177 0.571739
vt 0.314823 0.231255
vt 0.427287 0.224921
vt 0.427228 0.236113
vt 0.427168 0.247305
vt 0.314704 0.253639
vt 0.562586 0.489980
vt 0.561565 0.385967
vt 0.761033 0.384751
vt 0.761821 0.465059
vt 0.067013 0.277403
vt 0.011537 0.159482
vt 0.026285 0.159468
vt 0.076213 0.265597
vt 0.067013 0.041294
vt 0.107873 0.031638
vt 0.191666 0.011836
vt 0.188400 0.026586
vt 0.076213 0.053098
vt 0.291629 0.093292
vt 0.278368 0.099896
vt 0.205819 0.743462
vt 0.136481 0.800371
vt 0.050017 0.780120
vt 0.011537 0.697959
vt 0.050017 0.615756
vt 0.136481 0.595412
vt 0.205819 0.652247
vt 0.768101 0.011836
vt 0.764211 0.126046
vt 0.568278 0.117157
vt 0.571282 0.028976
vt 0.660306 0.988164
vt 0.545282 0.988164
vt 0.558148 0.782276
vt 0.646957 0.782276
vt 0.635697 0.548000
vt 0.747789 0.553670
vt 0.724002 0.758603
vt 0.637456 0.754225
vt 0.562586 0.277312
vt 0.761821 0.300859
vt 0.768101 0.220851
vt 0.571282 0.190355
vt 0.545282 0.553670
vt 0.567648 0.758603
vt 0.876733 0.296921
vt 0.887487 0.297000
vt 0.877899 0.307468
vt 0.867363 0.310816
vt 0.770884 0.766041
vt 0.819341 0.772806
vt 0.898708 0.766041
vt 0.853527 0.772228
vt 0.977327 0.018696
vt 0.966247 0.017204
vt 0.959486 0.012088
vt 0.969576 0.011836
vt 0.733749 0.817451
vt 0.733749 0.782341
vt 0.746659 0.782276
vt 0.746659 0.817385
vt 0.988463 0.027396
vt 0.977709 0.029320
vt 0.396331 0.825037
vt 0.396331 0.789929
vt 0.405950 0.789937
vt 0.405950 0.825045
vt 0.314836 0.824666
vt 0.314704 0.789589
vt 0.324707 0.790150
vt 0.324707 0.825225
vt 0.413416 0.789589
vt 0.413416 0.824698
vt 0.871342 0.315536
vt 0.861516 0.317008
vt 0.851568 0.309149
vt 0.857415 0.302957
vt 0.266317 0.864119
vt 0.232108 0.863112
vt 0.231505 0.852915
vt 0.266558 0.853751
vt 0.334958 0.790278
vt 0.334958 0.825352
vt 0.478228 0.789589
vt 0.478228 0.824655
vt 0.469035 0.824679
vt 0.469035 0.789613
vt 0.957638 0.026655
vt 0.950877 0.021539
vt 0.887487 0.028167
vt 0.876574 0.028087
vt 0.869291 0.021048
vt 0.873808 0.013413
vt 0.545117 0.231255
vt 0.683381 0.821188
vt 0.687589 0.783237
vt 0.700893 0.782276
vt 0.696788 0.816247
vt 0.800369 0.392914
vt 0.806291 0.383470
vt 0.806604 0.400586
vt 0.799749 0.401618
vt 0.068665 0.034107
vt 0.107171 0.022533
vt 0.359429 0.832579
vt 0.358033 0.789589
vt 0.373256 0.792813
vt 0.370428 0.832579
vt 0.859740 0.021300
vt 0.856170 0.022042
vt 0.850851 0.014397
vt 0.860679 0.011836
vt 0.806604 0.417111
vt 0.799540 0.411950
vt 0.445960 0.789589
vt 0.445960 0.828340
vt 0.437122 0.826955
vt 0.436491 0.790760
vt 0.942716 0.032584
vt 0.949578 0.037910
vt 0.938626 0.053200
vt 0.931765 0.047874
vt 0.925425 0.548522
vt 0.959643 0.548000
vt 0.959694 0.558319
vt 0.925476 0.558841
vt 0.841861 0.299402
vt 0.847709 0.293210
vt 0.834522 0.279967
vt 0.828674 0.286159
vt 0.819909 0.267894
vt 0.825756 0.261702
vt 0.959762 0.572339
vt 0.925544 0.572861
vt 0.231833 0.838829
vt 0.266887 0.839665
vt 0.926178 0.067415
vt 0.932939 0.072531
vt 0.927338 0.089026
vt 0.920577 0.083910
vt 0.229227 0.819781
vt 0.263436 0.820787
vt 0.956016 0.591126
vt 0.921798 0.591648
vt 0.921857 0.607450
vt 0.956074 0.606928
vt 0.956158 0.631574
vt 0.921940 0.632096
vt 0.811796 0.252557
vt 0.817643 0.246365
vt 0.229540 0.803941
vt 0.263749 0.804948
vt 0.808250 0.222247
vt 0.802402 0.228439
vt 0.793817 0.203413
vt 0.799664 0.197221
vt 0.230001 0.779255
vt 0.264210 0.780261
vt 0.921859 0.114393
vt 0.915098 0.109277
vt 0.910562 0.135402
vt 0.917323 0.140518
vt 0.919891 0.172999
vt 0.913130 0.167884
vt 0.230469 0.753716
vt 0.264678 0.754723
vt 0.956240 0.657077
vt 0.922023 0.657599
vt 0.797066 0.164718
vt 0.791218 0.170910
vt 0.791176 0.133902
vt 0.797174 0.136693
vt 0.956324 0.689681
vt 0.922106 0.690203
vt 0.230996 0.721113
vt 0.265205 0.722120
vt 0.263896 0.685155
vt 0.229687 0.684148
vt 0.229451 0.650746
vt 0.263660 0.651753
vt 0.924428 0.200606
vt 0.918986 0.204293
vt 0.956390 0.717650
vt 0.922172 0.718172
vt 0.928304 0.236830
vt 0.933242 0.229776
vt 0.941238 0.250563
vt 0.936946 0.261925
vt 0.956449 0.747641
vt 0.922231 0.748163
vt 0.795187 0.100174
vt 0.801243 0.106403
vt 0.805830 0.084526
vt 0.799701 0.073901
vt 0.806849 0.045199
vt 0.812913 0.055913
vt 0.956488 0.769201
vt 0.922270 0.769723
vt 0.228894 0.624813
vt 0.263103 0.625819
vt 0.950057 0.290295
vt 0.954275 0.278849
vt 0.972294 0.287584
vt 0.968076 0.299030
vt 0.232777 0.595412
vt 0.266887 0.597719
vt 0.959762 0.797316
vt 0.925634 0.799148
vt 0.988463 0.296246
vt 0.984244 0.307692
vt 0.260252 0.468426
vt 0.260252 0.433316
vt 0.276085 0.424208
vt 0.276085 0.459318
vt 0.823525 0.033910
vt 0.829589 0.044623
vt 0.290973 0.369507
vt 0.262058 0.388284
vt 0.260252 0.368509
vt 0.289166 0.349732
vt 0.844548 0.033828
vt 0.838484 0.023114
vt 0.290043 0.411957
vt 0.290043 0.447067
vt 0.262058 0.348709
vt 0.290973 0.329933
vt 0.790245 0.421731
vt 0.784896 0.410794
vt 0.803486 0.454911
vt 0.803486 0.489980
vt 0.784896 0.477365
vt 0.795361 0.445404
vt 0.282430 0.493379
vt 0.290168 0.501855
vt 0.267990 0.504648
vt 0.260252 0.496172
vt 0.274924 0.533234
vt 0.264228 0.530201
vt 0.710674 0.784576
vt 0.710674 0.816783
vt 0.260265 0.492098
vt 0.261993 0.533234
vn 0.0000 -0.6920 -0.7219
vn 0.0000 -0.0932 -0.9956
vn 0.7784 -0.0932 -0.6207
vn 0.5644 -0.6920 -0.4501
vn 0.9707 -0.0932 0.2215
vn 0.7038 -0.6920 0.1606
vn 0.4320 -0.0932 0.8970
vn 0.3132 -0.6920 0.6504
vn -0.4320 -0.0932 0.8970
vn -0.3132 -0.6920 0.6504
vn -0.9707 -0.0932 0.2215
vn -0.7038 -0.6920 0.1606
vn -0.4339 0.0000 0.9010
vn 0.4339 0.0000 0.9010
vn 0.3376 0.6282 0.7010
vn -0.3376 0.6282 0.7010
vn -0.7784 -0.0932 -0.6207
vn -0.5644 -0.6920 -0.4501
vn 0.7585 0.6282 0.1731
vn 0.6083 0.6282 -0.4851
vn -0.4145 0.8478 0.3306
vn -0.5169 0.8478 -0.1180
vn 0.0000 0.0000 -1.0000
vn -0.7818 0.0000 -0.6235
vn -0.6083 0.6282 -0.4851
vn 0.0000 0.6282 -0.7780
vn 0.9194 0.2838 0.2721
vn 0.7054 0.2814 -0.6505
vn -0.6928 -0.1752 0.6995
vn 0.1657 0.8488 0.5020
vn 0.7818 0.0000 -0.6235
vn 0.9749 0.0000 0.2225
vn -0.9749 0.0000 0.2225
vn -0.9837 -0.1591 0.0832
vn -0.4191 0.7051 -0.5720
vn 0.4145 0.8478 0.3306
vn 0.5169 0.8478 -0.1180
vn 0.7173 0.6772 -0.1637
vn 0.5753 0.6772 0.4588
vn 0.0000 0.8478 0.5302
vn 0.2300 0.8478 -0.4777
vn -0.2300 0.8478 -0.4777
vn -0.5753 0.6772 0.4588
vn 0.0000 0.6772 0.7358
vn 0.3192 0.6772 -0.6629
vn -0.3192 0.6772 -0.6629
vn -0.7173 0.6772 -0.1637
vn 0.9777 -0.1946 -0.0783
vn 0.6082 -0.5216 0.5983
vn -0.1751 0.0429 0.9836
vn 0.9178 -0.1915 -0.3476
vn 0.2928 -0.5319 -0.7945
vn -0.6188 0.0908 -0.7803
vn 0.5857 0.1975 -0.7861
vn 0.4918 -0.3744 -0.7861
vn 0.8081 -0.3885 0.4428
vn 0.8802 0.1833 0.4378
vn 0.6929 0.4606 0.5547
vn -0.3428 -0.4498 0.8247
vn 0.3847 0.4597 -0.8004
vn 0.3221 0.4516 -0.8320
vn 0.6524 0.4944 0.5743
vn -0.6805 -0.4627 -0.5682
vn 0.8117 0.2399 0.5324
vn -0.3041 -0.4415 0.8441
vn -0.9208 -0.2675 -0.2838
vn -0.2521 0.0961 0.9629
vn -0.9888 0.1421 -0.0445
vn 0.1777 0.4503 -0.8750
vn 0.9069 0.0485 0.4184
vn 0.8189 -0.4883 0.3014
vn -0.0845 0.6101 0.7878
vn 0.0457 0.1566 -0.9866
vn -0.6568 -0.5217 -0.5444
vn -0.5040 -0.6356 -0.5847
vn 0.3039 0.5619 -0.7693
vn -0.3413 -0.4830 0.8063
vn -0.2669 -0.4481 0.8532
vn 0.5224 0.6267 0.5781
vn 0.4037 0.6991 0.5901
vn -0.2208 -0.6135 0.7581
vn 0.2007 0.5397 -0.8176
vn -0.4277 -0.6590 -0.6186
vn -0.4461 -0.6342 -0.6314
vn 0.1526 0.6407 -0.7524
vn -0.1361 -0.6160 0.7758
vn -0.0921 -0.6463 0.7575
vn -0.3971 -0.6644 -0.6330
vn 0.4520 0.6573 0.6030
vn 0.3986 0.6730 0.6231
vn 0.2979 0.7248 0.6212
vn 0.0153 -0.6494 0.7603
vn 0.0972 0.6554 -0.7489
vn 0.0077 0.7084 -0.7058
vn -0.2962 -0.6699 -0.6807
vn -0.1535 -0.7506 -0.6427
vn -0.1133 0.6991 -0.7060
vn 0.1119 -0.6399 0.7602
vn 0.1695 0.7341 0.6575
vn 0.0601 0.8123 0.5801
vn 0.1879 -0.5904 0.7849
vn -0.1800 0.6126 -0.7696
vn -0.2323 0.5661 -0.7909
vn -0.0160 0.8213 0.5703
vn -0.0661 -0.7802 -0.6220
vn 0.0186 -0.8085 -0.5882
vn 0.0564 -0.8126 -0.5801
vn -0.3336 0.4946 -0.8025
vn 0.2613 -0.5442 0.7971
vn 0.3184 -0.5250 0.7893
vn -0.0434 0.8618 0.5053
vn -0.3160 0.8095 0.4948
vn 0.6720 -0.1548 0.7241
vn -0.6591 0.3739 -0.6525
vn 0.1142 -0.7589 -0.6410
vn 0.3211 -0.7380 -0.5935
vn -0.8549 -0.0242 -0.5183
vn 0.2615 -0.8400 -0.4753
vn -0.8827 -0.0791 -0.4633
vn 0.8755 -0.0310 0.4822
vn -0.3515 0.7412 0.5718
vn 0.7922 -0.2206 0.5689
vn -0.1166 0.7862 0.6068
vn -0.7465 0.5960 -0.2959
vn 0.2007 -0.7711 -0.6041
usemtl Material.001
s 1
f 1/1/1 121/2/2 120/3/3 3/4/4
f 3/5/4 120/6/3 122/7/5 5/8/6
f 5/9/6 122/10/5 123/11/7 7/12/8
f 7/12/8 123/11/7 124/13/9 9/14/10
f 9/15/10 124/16/9 126/17/11 11/18/12
f 10/19/13 8/20/14 18/21/15 19/22/16 53/23/13
f 11/18/12 126/17/11 125/24/17 13/25/18
f 13/26/18 125/27/17 121/2/2 1/1/1
f 1/28/1 3/29/4 5/30/6 7/31/8 9/32/10 11/33/12 13/34/18
f 17/35/19 16/36/20 23/37/21 24/38/22
f 2/39/23 14/40/24 21/41/25 15/42/26
f 16/43/20 17/44/19 38/45/27 39/46/28
f 55/47/29 53/48/13 19/49/16 52/50/30
f 4/51/31 2/39/23 15/42/26 16/52/20
f 8/20/14 6/53/32 17/54/19 18/21/15
f 14/55/24 12/56/33 54/57/34 20/58/35 21/59/25
f 28/60/36 27/61/37 34/62/38 35/63/39
f 15/64/26 21/65/25 28/66/36 22/67/40
f 20/68/35 52/69/30 19/70/16 26/71/41 27/72/37
f 18/73/15 17/35/19 24/38/22 25/74/42
f 16/36/20 15/64/26 22/67/40 23/37/21
f 21/65/25 20/68/35 27/72/37 28/66/36
f 19/70/16 18/73/15 25/74/42 26/71/41
f 30/75/43 29/76/44 35/77/39 34/78/38 33/79/45 32/80/46 31/81/47
f 26/82/41 25/83/42 32/84/46 33/85/45
f 24/86/22 23/87/21 30/88/43 31/89/47
f 22/90/40 28/91/36 35/92/39 29/93/44
f 27/61/37 26/94/41 33/95/45 34/62/38
f 25/83/42 24/96/22 31/97/47 32/84/46
f 23/98/21 22/90/40 29/93/44 30/99/43
f 38/100/27 36/101/48 40/102/49 42/103/50
f 17/44/19 6/104/32 36/105/48 38/45/27
f 6/104/32 4/106/31 37/107/51 36/105/48
f 4/106/31 16/43/20 39/46/28 37/107/51
f 41/108/52 43/109/53 47/110/54 45/111/55
f 39/112/28 38/113/27 42/114/50 43/115/53
f 37/116/51 39/117/28 43/109/53 41/108/52
f 36/118/48 37/119/51 41/120/52 40/121/49
f 44/122/56 45/123/55 47/124/54 46/125/57
f 40/121/49 41/120/52 45/126/55 44/127/56
f 42/103/50 40/102/49 44/128/56 46/129/57
f 42/103/50 46/129/57 50/130/58 48/131/59
f 50/132/58 51/133/60 67/134/61 66/135/62
f 46/125/57 47/124/54 51/136/60 50/137/58
f 43/138/53 42/139/50 48/140/59 49/141/63
f 47/110/54 43/109/53 49/142/63 51/143/60
f 55/144/29 52/145/30 57/146/64 59/147/65
f 10/148/13 53/48/13 55/47/29 54/57/34 12/56/33
f 58/149/66 59/150/65 63/151/67 62/152/68
f 20/153/35 54/154/34 58/155/66 56/156/69
f 52/69/30 20/68/35 56/157/69 57/158/64
f 54/159/34 55/160/29 59/161/65 58/162/66
f 61/163/70 116/164/71 118/165/72 63/166/67
f 56/156/69 58/155/66 62/167/68 60/168/73
f 59/147/65 57/146/64 61/163/70 63/166/67
f 57/169/64 56/170/69 60/171/73 61/172/70
f 67/173/61 65/174/74 69/175/75 71/176/76
f 51/143/60 49/142/63 65/174/74 67/173/61
f 49/177/63 48/178/59 64/179/77 65/180/74
f 48/131/59 50/130/58 66/181/62 64/182/77
f 68/183/78 70/184/79 74/185/80 72/186/81
f 65/180/74 64/179/77 68/187/78 69/188/75
f 64/182/77 66/181/62 70/184/79 68/183/78
f 66/135/62 67/134/61 71/189/76 70/190/79
f 75/191/82 73/192/83 77/193/84 79/194/85
f 70/190/79 71/189/76 75/195/82 74/196/80
f 71/176/76 69/175/75 73/192/83 75/191/82
f 69/188/75 68/187/78 72/197/81 73/198/83
f 77/199/84 76/200/86 80/201/87 81/202/88
f 73/198/83 72/197/81 76/200/86 77/199/84
f 72/186/81 74/185/80 78/203/89 76/204/86
f 74/196/80 75/195/82 79/205/85 78/206/89
f 80/207/87 82/208/90 86/209/91 84/210/92
f 76/204/86 78/203/89 82/208/90 80/207/87
f 78/206/89 79/205/85 83/211/93 82/212/90
f 79/194/85 77/193/84 81/213/88 83/214/93
f 87/215/94 85/216/95 89/217/96 91/218/97
f 82/212/90 83/211/93 87/219/94 86/220/91
f 83/214/93 81/213/88 85/216/95 87/215/94
f 81/202/88 80/201/87 84/221/92 85/222/95
f 88/223/98 90/224/99 94/225/100 92/226/101
f 85/222/95 84/221/92 88/227/98 89/228/96
f 84/210/92 86/209/91 90/224/99 88/223/98
f 86/220/91 87/219/94 91/229/97 90/230/99
f 94/231/100 95/232/102 99/233/103 98/234/104
f 90/230/99 91/229/97 95/232/102 94/231/100
f 91/218/97 89/217/96 93/235/105 95/236/102
f 89/228/96 88/227/98 92/237/101 93/238/105
f 99/239/103 97/240/106 101/241/107 103/242/108
f 95/236/102 93/235/105 97/240/106 99/239/103
f 93/238/105 92/237/101 96/243/109 97/244/106
f 92/226/101 94/225/100 98/245/104 96/246/109
f 100/247/110 102/248/111 106/249/112 104/250/113
f 97/244/106 96/243/109 100/251/110 101/252/107
f 96/246/109 98/245/104 102/248/111 100/247/110
f 98/234/104 99/233/103 103/253/108 102/254/111
f 107/255/114 105/256/115 109/257/116 111/258/117
f 102/254/111 103/253/108 107/259/114 106/260/112
f 103/242/108 101/241/107 105/256/115 107/255/114
f 101/252/107 100/251/110 104/261/113 105/262/115
f 111/258/117 109/257/116 113/263/118 115/264/119
f 105/265/115 104/266/113 108/267/120 109/268/116
f 104/250/113 106/249/112 110/269/121 108/270/120
f 106/271/112 107/272/114 111/273/117 110/274/121
f 112/275/122 114/276/123 118/165/72 116/164/71
f 109/268/116 108/267/120 112/277/122 113/278/118
f 108/270/120 110/269/121 114/276/123 112/275/122
f 110/274/121 111/273/117 115/279/119 114/280/123
f 62/167/68 119/281/124 117/282/125 60/168/73
f 114/283/123 115/284/119 119/285/124 118/286/72
f 115/287/119 113/288/118 117/289/125 119/290/124
f 113/288/118 112/291/122 116/292/71 117/289/125
f 62/152/68 63/151/67 118/293/72 119/294/124
f 60/295/73 117/289/125 116/292/71 61/296/70
f 4/51/31 120/3/3 121/2/2 2/39/23
f 6/104/32 122/7/5 120/6/3 4/106/31
f 8/20/14 123/11/7 122/10/5 6/53/32
f 10/19/13 124/13/9 123/11/7 8/20/14
f 126/17/11 124/16/9 10/148/13 12/56/33
f 14/55/24 125/24/17 126/17/11 12/56/33
f 2/39/23 121/2/2 125/27/17 14/40/24
